<?xml version="1.0" encoding="utf-8"?>
<!-- Generator: Adobe Illustrator 23.0.6, SVG Export Plug-In . SVG Version: 6.00 Build 0)  -->
<svg version="1.1" id="Layer_1" xmlns="http://www.w3.org/2000/svg" xmlns:xlink="http://www.w3.org/1999/xlink" x="0px" y="0px"
	 viewBox="0 0 144 36" style="enable-background:new 0 0 144 36;" xml:space="preserve">
<style type="text/css">
	.st0{display:none;}
	.st1{display:inline;fill:none;}
	.st2{display:inline;}
	.st3{fill:#00A0FF;}
	.st4{fill:none;}
</style>
<g class="st0">
	<circle class="st1" cx="432" cy="432" r="288"/>
	<g class="st2">
		<path class="st3" d="M635.3,423.3c-4-9-1.2-8.6-13.7-22.7c-7.3-8.2-12.3-46.3-21.4-56.2c-2.1-4.3-4.7-8.3-8.1-11.7
			c-0.6-0.6-1.2-1.2-1.8-1.8c-2.7-8.1-4.3-18.9-10-24.2c-2.6-2.4-8.5-2-10.5-4.8c-2.2-2.9-0.1-5.2-2.5-8.2
			c-13.1-16.8-27-19.1-41.8-30.8c-9,3.7-8.8-8-14.4-11.6c-2.3-1.5-6.7-0.4-9.6-1.9c-9.2-5.1-14.7-16.8-25.2-9.9
			c0,2.7,5.5,4.8,5.5,7.5c-8.8,3.6-14.2-0.3-21.8-2.7c-5.8-1.9-14.8-0.9-20.3-1.1c-3.5-0.2-6.5-2-9.9-2.3c-2.3-0.2-4.7,0.3-7,0.5
			c-2-0.5-4-0.9-6-1.4c-1.7-0.9-3.4-2-5.3-2.1c-0.5,0-1.1,0-1.6,0.1c-0.9-0.4-1.9-0.8-2.8-1.3c-4.9-2.6-10.1-4.1-15.8-2.4
			c-1.9,0.5-4,0.2-5.8-0.7c-4.1-2-16.2-2.3-20-4.8c-7.3-4.8-13.3-10.8-22.1-12c-2.1-0.3-4.1-0.5-5.4,1.5s0.1,3.5,1.3,5
			c2.8,3.6,7.9,5.7,11.9,8c10,5.9,13.2,8.1,13.5,12.3c0,2.3-1.3,3.5-2.5,5.3c-2.8,3.9-0.3,4.4,1.4,8.7c1.1,2.7-4.9,1.9-6.8,0.6
			c-4.8-3.2-5.8-2.7-11.3-4.3c-2.4-0.7-5.3-2.3-7.4-0.1c-2.1,2.3-0.8,5.4,0.9,7.3c1.9,2.3,2.9,4.8,3.1,7.4c-2.7,1.5-5.3,2.9-8.6,4
			c-2.1-0.3-15.2,2.7-19.1,5.1c-9,7.2-23.7,7-23.9,14.4c-0.3,4.3,3.6,7.9,1.4,10.6c-2.1,2.6-5,4.6-7.2,7.2c-3.3,4-5.7,9.3-8.8,14.1
			c-0.6,0.9-1.1,1.7-1.8,2.6c-3.3,2.9-2.1,18.4-17.2,11c-3.9-0.7-7.2-4.7-10.8-4.5c-9.7,0.5-19.9-11-24-5.4
			c-2.4,4.8,1.6,9,13.5,17.8c9.8,5.6,6.7,10.6,5.8,15.3c-2.6,8.2-13.5,3.8-20.3-0.3c-5.8-3.4-12.5-6.1-18.5-8.9
			c-5.3-2.5-14.3-10.9-18-4.3c-1.3,5.5,6.5,6,9.4,9.6c9,6.1,17.7,22.2,11.8,25.1c-8.6,4.1-12.9-6-22.4-5.7c-1,0.1-1.5,0.5-1.5,1.3
			c-1.3,8.9,7.9,10.4,12.7,14.6c3,2.6,5.3,6.5,8.2,9.5c2.6,2.7,19.9,24.5,25.5,29.6c2.7,2.5,6.3,4.8,9.1,7.6c0.9,4.1,2.2,8,3.1,12
			c-2.8,1.3-7.9-0.2-9.9,2.4c2.7,12,12.2,13.2,18.7,19.1c0.4,2.5,0.9,4.8,1.8,7.1c-1.1,3.6-3,6.8-4.9,10c-5.2,0.5-9.2-1-15.2,0.8
			c5.6,20.1,22.4,22.1,35.8,29.7c1.3,4-4.1,3.8-4.8,6.5c7,15,26.8,13.2,29.1,32.1c8.1,4.1,11.9,2.8,18.4,9.3c2,2,5.1,5,6.1,6.7
			c2.3,3.9,1.5,9.6,4.2,14.4c3,5.2,12.2,6.9,13,13.3c4.3-1.2,1.9-6.7,6.3-7.8c6.5,5.1,9.9,11.8,17.4,16.8c4,2.7,8.8,4.2,13.7,5.8
			c0.4,1,1.1,1.9,2.1,2.6c2.4,1.6,5,1.7,7.8,1c11,5.3,25.3,22.8,41.3,17.1c9.4-3.4,16-13.5,32.9-14c1-0.9,1.8-1.9,2.6-2.9
			c5.7,3.5,10.2,8.6,16.8,11c2.3,0.8,6.9,0,11.5,1.5c8.9,3,16.1,14.4,21.1,6.1c6.2-10.2-11.2-10.3-11-18.8
			c9.3-11.7,17.9,4.7,29.2,8.5c1.6,0.9,2.8,1.8,5.9,3.6c4.4,1.8,6.8,1.6,10.8,4.5c2.8,2,3.5,6,6,8.4c6.9,6.6,23.3,11.2,24.8,9.2
			c0.1-4.9-5.6-8.3-9.2-12c-4.5-4.9-9.3-8.5-11.6-10.2c-7-5.6-14.3-11-20.6-17.2c-1.5-1.4-4.3-3.7-4-4.6c0-0.9,1.3-1.3,1.7-1.3
			c3.1-1.2,3.6-4.6,5.6-7.9c2.4-2,15.2,5.9,19,8.6c3.5,2.7,7.9,6.3,10.5,2.2c0.7-3.2-4.3-6.7-7.5-8.3c-1.3-0.9-2.8-1.6-3.5-2.5
			c-5.3-5.8-8.2-10.6-11.9-16.4c11.4-4.3,19.8,14.8,29,7.5c2.2-6,8.3-7.4,10.6-4.3c9.5,12.4,19.1,10.5,26,15.6
			c5.9,4.4,8.2,5.3,14.9,2.9c3.5-5.4,2.7-5.7,3.4-11.8c4.2-2.8,15,11.4,19.9,6.7c2.6-6-5.5-14-7.8-19.2c-1.5-3.5-1-8.1-3.3-11.1
			c-3-4.1-8.8-3.7-13.8-7c-5.7-3.8-9.7-7.9-12-14c0.5-0.3,0.9-0.8,1.3-1.4c0.2-1,0.3-1.9,0.3-2.7c5,2.5,8.5,7.4,13.3,4.5
			c5.3-3.2,0.8-10.3,4.8-15.8c2-2,4.4-3.8,5-6.2c-2.5-4.9-1.6-8.5-4.5-11.4c-5.1-5-11.1,1.2-16.4-2.3c-4.6-2.9-5.8-6.2-5.9-9.6
			c1.1-1.8,1.8-3.7,2-5.8c0.3-3.2,0.4-6.1,2.9-8.3c0.6-0.5,1.8-1.7,3.8-0.6c4.7,2.5,13.9,7.4,16.9,4.4c3.7-4.8-14.3-16.6-16.5-26.2
			c3.6-3.2,8.6,0.6,10-2.1c2.3-4.2-14.9-13.4-11.3-18.6c3.1-2.8,12.9,3.7,17.6-4.9c1.7-3.9,12.6,7.2,16.6,0.9
			C651.3,436,642,435.3,635.3,423.3z M432,576c-79.5,0-144-64.5-144-144s64.5-144,144-144c26.2,0,50.8,7,72,19.3l0,0
			c21.1,12.2,38.8,29.6,51.4,50.5c-22.3,22.8-58,28.6-87,12.1c-0.1-0.1-0.3-0.1-0.4-0.2l0,0c-10.6-6.1-22.9-9.6-36-9.6
			c-39.8,0-72,32.2-72,72s32.2,72,72,72c16.9,0,32.4-5.8,44.7-15.6c-1-1-1.9-2.1-1.3-3.6c0.2-0.5-0.3-0.9-1-1s-1.5-0.2-2.2-0.2
			c-2.1-0.1-4.1-0.5-6.2-0.9c-0.7-0.1-1.3-0.5-1.3-1.1c0.1-0.6,0.7-0.9,1.4-1.1c0.7-0.1,1.4-0.2,2.1-0.3c0.9-0.1,1.9-0.3,2.1-1.1
			c0.2-0.8-0.6-1.2-1.4-1.5c-1.1-0.5-2.5-0.5-3.7-0.9c-1.4-0.4-2.8-0.4-4.2,0.1c-2.3,0.8-3.6,0.6-5.3-0.7c-1-0.8-2.1-1.1-3.6-1.1
			c-1.3,0-2.7,0.5-3.9,0.3c-3.1-0.5-6.3-0.8-9.4-1.3c-1.8-0.3-3.6-0.7-5.5-0.7s-3.7-0.4-5.3-1.1c-1.6-0.8-1.6-1.2-0.3-2.2
			c1.4-1.1,1.3-1.7-0.6-2.3c-1-0.3-2.1-0.5-3-1c-1.8-1.1-1.5-2.7,0.7-3.4c1.8-0.6,3.8-0.9,5.8-0.9c2.1,0,4.2-0.4,6.3-0.7
			c1.5-0.2,1.8-1,1-1.9c-0.3-0.3-0.7-0.7-0.7-1.1c0.2-1.6-1.3-2-3-2.2c-1.9-0.3-3.7-0.6-5.6-0.9c-0.5-0.1-0.9-0.2-0.9-0.6
			c0-0.2,0.1-0.5,0.4-0.5c2.1-0.6,4.1-1.7,6.5-1c0.9,0.2,2,0.3,2.8,0c2.8-1.1,5.8-1.1,8.7-1.6c1.6-0.3,1.8-0.7,0.9-1.7
			c-1.1-1.2-0.8-2.1,1-2.8c1.3-0.5,2.6-0.7,4-0.5c2.3,0.3,4.5,0,6.6-0.9c1.3-0.5,1.5-1.3,0.5-2.1c-1-0.9-2.4-1.4-4-1.5
			c-2.6,0-5.1-0.7-7.8-0.5c-0.7,0.1-1.5-0.1-1.5-0.8c0-0.8,0.9-0.8,1.6-0.9c0.1,0,0.3,0,0.5,0c2.4,0.6,4.7-0.5,7-0.3
			c0.3,0,0.8-0.1,0.8-0.4c0-0.4-0.5-0.3-0.8-0.3c-1.6,0.1-3.1-0.3-4.6-0.5c-2.3-0.3-4.6-0.8-7-0.9c-2.5-0.2-5.1-0.1-7.4-1
			c-2.1-0.8-2.3-1.8-0.5-3c1.1-0.8,2.4-1.1,3.8-1.3c1.3-0.1,2.5-0.3,3.7-0.6c1.9-0.4,3.9-0.7,5.7-0.2c2.4,0.7,4.7,0.7,7.4,0.3
			c3.2-0.5,6.7-0.1,10,0c3.6,0.2,7.1,0.6,10.7-0.1c0.6-0.1,1.2-0.1,1.8-0.1c4.9-0.4,9.8,1.7,14.6,0.5c0.2-0.1,0.5,0,0.8,0
			c2,0.1,3.8,0.6,5.6,0.1c1-0.3,1.8-0.1,2.9-0.2c0.3,0,0.7-0.1,1-0.1l0,0h0.1c4.7-0.5,9.3-0.5,13.8,0H576
			C576,511.5,511.5,576,432,576z M430.5,434c-3,0.5-5.9,0.6-8.8-0.1c-0.9-0.2-1.9-0.4-1.7-1.3c0.1-0.8,1-1.1,2.1-1.3
			c2.9-0.5,5.6-0.1,8.4,0.4c0.5,0.1,0.9,0.4,1.1,0.5C432.5,432.9,432.1,433.7,430.5,434z"/>
		<path class="st3" d="M287.9,585.8c-2.4-3.6,0.5-6.8-1-10.3c-1.6-3.8-7.3-8-11.2-11.2c-4.2-3.5-8.6-7.1-12.5-7.7
			c-7.6,3.8-1.1,9.4,0.1,14.6c1.3,5.3-1.8,12.1,2.5,15.4c4.5,0.4,9.6-0.9,13.8,0.2c-0.6,7.8,10,16.8,16.7,14.4
			c3.3-1.2,7.1-7.1,5.7-10.5C299.4,584.7,292.6,589.5,287.9,585.8z"/>
	</g>
</g>
<g>
	<g>
		<path class="st3" d="M43.5,13.9c-0.7,0.3-1.5,0.4-2.7,0.4c1.1,0.5,1.7,1.2,1.7,2.4c0,1.8-1.5,3.1-3.8,3.1c-0.4,0-0.8,0-1.1-0.1
			c-0.2,0.1-0.3,0.4-0.3,0.6c0,0.3,0.2,0.6,1.1,0.6h1.4c2.1,0,3.4,1.1,3.4,2.6c0,1.9-1.6,3-4.7,3c-3.4,0-4.3-1.1-4.3-3h2.2
			c0,0.9,0.4,1.3,2.1,1.3c1.7,0,2.2-0.5,2.2-1.1s-0.5-1-1.5-1h-1.4c-1.9,0-2.7-0.8-2.7-1.8c0-0.7,0.4-1.3,1.1-1.7
			c-1.2-0.6-1.6-1.5-1.6-2.6c0-2,1.6-3.4,3.9-3.4c2.1,0.1,3.2-0.5,4.3-1.1L43.5,13.9z M37.1,16.4c0,1.1,0.6,1.7,1.5,1.7
			c1,0,1.5-0.6,1.5-1.7s-0.5-1.6-1.5-1.6C37.7,14.7,37.1,15.4,37.1,16.4z"/>
		<path class="st3" d="M50.2,13.2l-0.4,2.4c-0.3-0.1-0.5-0.1-0.8-0.1c-1.1,0-1.7,0.8-2,2.3v4.8h-2.5v-9.2h2.1l0.2,1.8
			c0.4-1.3,1.3-2.1,2.4-2.1C49.6,13.1,49.9,13.1,50.2,13.2z"/>
		<path class="st3" d="M53.9,10.1c0,0.8-0.6,1.4-1.5,1.4s-1.5-0.6-1.5-1.4s0.6-1.4,1.5-1.4S53.9,9.2,53.9,10.1z M53.6,22.6h-2.5
			v-9.2h2.5V22.6z"/>
		<path class="st3" d="M68,15.9v6.7h-2.5v-6.3c0-1.1-0.4-1.4-0.9-1.4c-0.7,0-1.1,0.5-1.6,1.3v6.4h-2.5v-6.3c0-1.1-0.4-1.4-0.9-1.4
			c-0.7,0-1.1,0.5-1.6,1.3v6.4h-2.5v-9.2h2.1l0.2,1.1c0.7-0.9,1.5-1.4,2.7-1.4c1,0,1.8,0.5,2.2,1.5c0.7-1,1.6-1.5,2.8-1.5
			C67,13.1,68,14.1,68,15.9z"/>
		<path class="st3" d="M77.8,18.7H72c0.2,1.8,1,2.3,2.2,2.3c0.8,0,1.4-0.2,2.3-0.8l1,1.4c-0.9,0.7-2.1,1.3-3.5,1.3
			c-3,0-4.5-2-4.5-4.9c0-2.8,1.5-4.9,4.2-4.9c2.6,0,4.2,1.7,4.2,4.7C77.9,18.1,77.8,18.5,77.8,18.7z M75.4,17.1
			c0-1.4-0.5-2.3-1.7-2.3c-1,0-1.6,0.6-1.7,2.4h3.4C75.4,17.2,75.4,17.1,75.4,17.1z"/>
		<path class="st3" d="M85.9,14.2L85,15.6c-0.8-0.5-1.5-0.7-2.3-0.7s-1.3,0.3-1.3,0.8s0.3,0.8,1.9,1.3c1.8,0.5,2.9,1.3,2.9,2.9
			c0,1.9-1.8,3-4,3c-1.6,0-2.9-0.5-3.8-1.3l1.2-1.4c0.7,0.5,1.6,0.9,2.5,0.9s1.5-0.4,1.5-1c0-0.7-0.3-0.9-2-1.4
			c-1.9-0.5-2.7-1.5-2.7-2.8c0-1.6,1.4-2.8,3.7-2.8C83.9,13.1,85.1,13.5,85.9,14.2z"/>
		<path class="st3" d="M95.4,13.7c-0.6,0.2-1.4,0.2-2.5,0.3c1,0.4,1.6,1.2,1.6,2.5c0,1.8-1.2,3-3.3,3c-0.4,0-0.8,0-1.2-0.2
			c-0.4,0.2-0.7,0.6-0.7,1c0,0.5,0.3,0.9,1.4,0.9h1.5c1.8,0,2.9,1,2.9,2.3c0,1.6-1.3,2.6-4,2.6c-2.8,0-3.8-0.8-3.8-2.6h0.9
			c0,1.3,0.7,1.8,2.9,1.8c2.1,0,2.9-0.6,2.9-1.7c0-1-0.8-1.5-2.1-1.5h-1.5c-1.5,0-2.3-0.7-2.3-1.6c0-0.6,0.4-1.1,1-1.5
			c-1.1-0.5-1.5-1.3-1.5-2.6c0-1.8,1.3-3.1,3.3-3.1c2.4,0,3.1-0.2,4-0.6L95.4,13.7z M88.8,16.4c0,1.5,0.9,2.3,2.3,2.3
			c1.5,0,2.3-0.8,2.3-2.3c0-1.4-0.8-2.3-2.3-2.3C89.6,14.1,88.8,15,88.8,16.4z"/>
		<path class="st3" d="M100.9,13.4l-0.2,1c-0.3-0.1-0.5-0.1-0.8-0.1c-1.3,0-2,0.9-2.4,2.8v5.5h-1v-9.1h0.9l0.1,2
			c0.5-1.5,1.3-2.2,2.6-2.2C100.4,13.3,100.7,13.3,100.9,13.4z"/>
		<path class="st3" d="M108.5,22.1l-0.2,0.7c-0.8-0.2-1.3-0.6-1.4-1.5c-0.7,1-1.6,1.5-2.8,1.5c-1.8,0-2.8-1.1-2.8-2.7
			c0-1.9,1.4-3,3.8-3h1.7v-0.9c0-1.4-0.6-2.1-2.1-2.1c-0.7,0-1.6,0.2-2.5,0.5l-0.3-0.8c1-0.4,1.9-0.6,2.9-0.6c2.1,0,3,1,3,2.9v4.4
			C107.8,21.6,108,21.9,108.5,22.1z M106.7,20.3v-2.5h-1.6c-1.8,0-2.9,0.7-2.9,2.2c0,1.3,0.7,2,1.9,2
			C105.4,22,106.2,21.4,106.7,20.3z"/>
		<path class="st3" d="M117.1,18c0,2.9-1.2,4.8-3.5,4.8c-1.2,0-2-0.5-2.6-1.3V26l-1,0.1V13.5h0.9l0.1,1.3c0.7-0.9,1.6-1.5,2.8-1.5
			C116,13.3,117.1,15.1,117.1,18z M116,18c0-2.6-0.8-3.9-2.4-3.9c-1.2,0-1.9,0.7-2.6,1.6v4.8c0.6,0.9,1.4,1.4,2.4,1.4
			C115.1,21.9,116,20.6,116,18z"/>
		<path class="st3" d="M125.4,16.1v6.5h-1v-6.4c0-1.5-0.6-2.1-1.7-2.1c-1.2,0-2.1,0.8-2.8,1.9v6.6h-1V9.8l1-0.1V15
			c0.7-1,1.7-1.7,3-1.7C124.5,13.3,125.4,14.4,125.4,16.1z"/>
		<path class="st3" d="M128.9,10.2c0,0.4-0.3,0.7-0.8,0.7c-0.4,0-0.8-0.3-0.8-0.7s0.3-0.7,0.8-0.7C128.6,9.5,128.9,9.8,128.9,10.2z
			 M128.6,22.6h-1v-9.1h1V22.6z"/>
		<path class="st3" d="M136.7,14.2l-0.5,0.7c-0.6-0.5-1.2-0.7-2-0.7c-1.7,0-2.8,1.3-2.8,3.9s1.1,3.8,2.8,3.8c0.9,0,1.5-0.3,2.1-0.8
			l0.5,0.7c-0.7,0.6-1.6,1-2.6,1c-2.3,0-3.9-1.7-3.9-4.7c0-2.9,1.5-4.8,3.9-4.8C135.1,13.3,135.9,13.6,136.7,14.2z"/>
		<path class="st3" d="M143.8,14.3l-0.5,0.7c-0.8-0.6-1.5-0.8-2.4-0.8c-1.2,0-2,0.6-2,1.5c0,0.9,0.6,1.3,2.2,1.7
			c2,0.5,2.9,1.2,2.9,2.8c0,1.7-1.5,2.6-3.3,2.6c-1.5,0-2.5-0.5-3.3-1.2L138,21c0.8,0.6,1.6,1,2.7,1c1.3,0,2.3-0.6,2.3-1.7
			s-0.5-1.5-2.4-2s-2.7-1.2-2.7-2.5c0-1.4,1.3-2.4,3-2.4C142,13.3,142.9,13.6,143.8,14.3z"/>
	</g>
</g>
<g>
	<g>
		<path class="st4" d="M34.4,18c0,9.9-8.1,18-18,18V0C26.4,0,34.4,8.1,34.4,18z"/>
	</g>
</g>
<g id="Layer_3" class="st0">
	<g class="st2">
		<g>
			<path class="st3" d="M352.2,427.7c-2-4.4-0.6-4.3-6.7-11.2c-3.6-4-6.1-22.8-10.5-27.7c-1-2.1-2.3-4.1-4-5.8
				c-0.3-0.3-0.6-0.6-0.9-0.9c-1.3-4-2.1-9.3-4.9-11.9c-1.3-1.2-4.2-1-5.2-2.4c-1.1-1.4,0-2.5-1.2-4c-6.5-8.3-13.3-9.4-20.6-15.2
				c-4.4,1.8-4.3-3.9-7.1-5.7c-1.1-0.7-3.3-0.2-4.7-0.9c-4.5-2.5-7.2-8.3-12.4-4.9c0,1.3,2.7,2.4,2.7,3.7c-4.3,1.8-7-0.1-10.7-1.3
				c-2.9-0.9-7.3-0.4-10-0.6c-1.8-0.1-3.2-1-4.9-1.1c-1.1-0.1-2.3,0.2-3.5,0.2c-1-0.3-2-0.5-3-0.7c-0.8-0.5-1.7-1-2.6-1
				c-0.3,0-0.5,0-0.8,0c-0.5-0.2-0.9-0.4-1.4-0.6c-2.4-1.3-5-2-7.8-1.2c-0.9,0.3-2,0.1-2.9-0.4c-2-1-8-1.1-9.9-2.4
				c-3.6-2.3-6.5-5.3-10.9-5.9c-1-0.1-2-0.2-2.6,0.7c-0.6,1,0.1,1.7,0.6,2.5c1.4,1.8,3.9,2.8,5.9,3.9c4.9,2.9,6.5,4,6.6,6.1
				c0,1.1-0.6,1.7-1.3,2.6c-1.4,1.9-0.1,2.1,0.7,4.3c0.5,1.3-2.4,0.9-3.4,0.3c-2.4-1.6-2.8-1.3-5.6-2.1c-1.2-0.3-2.6-1.1-3.6,0
				s-0.4,2.6,0.4,3.6c0.9,1.1,1.4,2.4,1.5,3.6c-1.3,0.7-2.6,1.4-4.2,1.9c-1-0.1-7.5,1.3-9.4,2.5c-4.5,3.5-11.7,3.4-11.8,7.1
				c-0.2,2.1,1.8,3.9,0.7,5.2c-1,1.3-2.5,2.3-3.5,3.5c-1.6,2-2.8,4.6-4.3,7c-0.3,0.4-0.6,0.9-0.9,1.3c-1.6,1.4-1,9-8.5,5.4
				c-1.9-0.4-3.5-2.3-5.3-2.2c-4.8,0.3-9.8-5.4-11.9-2.7c-1.2,2.3,0.8,4.5,6.7,8.8c4.8,2.7,3.3,5.2,2.9,7.5c-1.3,4-6.7,1.9-10-0.1
				c-2.9-1.7-6.2-3-9.1-4.4c-2.6-1.3-7.1-5.4-8.9-2.1c-0.6,2.7,3.2,3,4.7,4.7c4.4,3,8.7,11,5.8,12.4c-4.2,2-6.3-3-11.1-2.8
				c-0.5,0-0.7,0.3-0.8,0.6c-0.6,4.4,3.9,5.1,6.3,7.2c1.5,1.3,2.6,3.2,4.1,4.7c1.3,1.3,9.8,12.1,12.6,14.6c1.4,1.2,3.1,2.4,4.5,3.8
				c0.4,2,1.1,3.9,1.6,5.9c-1.4,0.7-3.9-0.1-4.9,1.2c1.3,5.9,6,6.5,9.2,9.4c0.2,1.2,0.4,2.4,0.9,3.5c-0.6,1.8-1.5,3.4-2.4,4.9
				c-2.6,0.3-4.5-0.5-7.5,0.4c2.8,9.9,11,10.9,17.6,14.6c0.6,2-2,1.9-2.4,3.2c3.4,7.4,13.2,6.5,14.4,15.8c4,2,5.9,1.4,9.1,4.6
				c1,1,2.5,2.5,3,3.3c1.1,1.9,0.7,4.7,2.1,7.1c1.5,2.6,6,3.4,6.4,6.5c2.1-0.6,0.9-3.3,3.1-3.8c3.2,2.5,4.9,5.8,8.6,8.3
				c2,1.3,4.3,2.1,6.7,2.9c0.2,0.5,0.5,0.9,1.1,1.3c1.2,0.8,2.5,0.8,3.8,0.5c5.4,2.6,12.5,11.2,20.3,8.4c4.6-1.7,7.9-6.6,16.2-6.9
				c0.5-0.4,0.9-0.9,1.3-1.4c2.8,1.8,5,4.3,8.3,5.4c1.1,0.4,3.4,0,5.7,0.7c4.4,1.5,7.9,7.1,10.4,3c3.1-5-5.5-5.1-5.4-9.3
				c4.6-5.8,8.9,2.3,14.4,4.2c0.8,0.5,1.4,0.9,2.9,1.8c2.1,0.9,3.4,0.8,5.3,2.2c1.4,1,1.7,3,2.9,4.1c3.4,3.3,11.5,5.5,12.2,4.5
				c0-2.4-2.8-4.1-4.5-5.9c-2.2-2.4-4.6-4.2-5.7-5c-3.4-2.8-7.1-5.4-10.2-8.5c-0.7-0.7-2.1-1.8-2-2.3c0-0.4,0.7-0.6,0.8-0.6
				c1.5-0.6,1.8-2.3,2.8-3.9c1.2-1,7.5,2.9,9.4,4.3c1.7,1.3,3.9,3.1,5.2,1.1c0.4-1.6-2.1-3.3-3.7-4.1c-0.6-0.5-1.4-0.8-1.7-1.2
				c-2.6-2.9-4-5.2-5.9-8.1c5.6-2.1,9.8,7.3,14.3,3.7c1.1-3,4.1-3.6,5.3-2.1c4.7,6.1,9.4,5.2,12.8,7.7c2.9,2.2,4,2.6,7.3,1.4
				c1.7-2.7,1.3-2.8,1.7-5.8c2-1.4,7.4,5.6,9.8,3.3c1.3-3-2.7-6.9-3.9-9.5c-0.8-1.7-0.5-4-1.6-5.5c-1.5-2-4.3-1.8-6.8-3.5
				c-2.8-1.9-4.8-3.9-5.9-6.9c0.3-0.2,0.5-0.4,0.6-0.7c0.1-0.5,0.1-0.9,0.1-1.3c2.5,1.2,4.2,3.7,6.5,2.2c2.6-1.5,0.4-5.1,2.4-7.8
				c1-1,2.2-1.9,2.5-3c-1.2-2.4-0.8-4.2-2.2-5.6c-2.5-2.5-5.5,0.6-8.1-1.1c-2.3-1.5-2.9-3.1-2.9-4.8c0.5-0.9,0.9-1.8,1-2.9
				c0.1-1.6,0.2-3,1.4-4.1c0.3-0.3,0.9-0.8,1.9-0.3c2.3,1.2,6.9,3.6,8.3,2.2c1.8-2.4-7.1-8.2-8.1-12.9c1.8-1.6,4.3,0.3,4.9-1.1
				c1.1-2.1-7.3-6.6-5.6-9.2c1.5-1.4,6.3,1.8,8.7-2.4c0.9-1.9,6.2,3.5,8.2,0.4C360.1,434,355.5,433.6,352.2,427.7z M252,503
				c-39.2,0-70.9-31.8-70.9-71s31.8-71,70.9-71c12.9,0,25,3.5,35.5,9.5l0,0c10.4,6,19.1,14.6,25.3,24.9c-11,11.2-28.6,14.1-42.9,6
				c-0.1,0-0.1-0.1-0.2-0.1l0,0c-5.2-3-11.3-4.8-17.7-4.8c-19.6,0-35.5,15.9-35.5,35.5s15.9,35.5,35.5,35.5c8.3,0,16-2.9,22-7.7
				c-0.5-0.5-0.9-1-0.6-1.8c0.1-0.3-0.1-0.4-0.5-0.5s-0.7-0.1-1.1-0.1c-1-0.1-2-0.3-3-0.5c-0.3-0.1-0.7-0.2-0.6-0.5
				c0-0.3,0.4-0.5,0.7-0.5c0.3-0.1,0.7-0.1,1-0.1c0.5-0.1,0.9-0.1,1-0.5s-0.3-0.6-0.7-0.7c-0.5-0.3-1.2-0.3-1.8-0.5
				c-0.7-0.2-1.4-0.2-2.1,0.1c-1.1,0.4-1.8,0.3-2.6-0.3c-0.5-0.4-1-0.5-1.8-0.5c-0.7,0-1.3,0.2-1.9,0.1c-1.5-0.3-3.1-0.4-4.6-0.6
				c-0.9-0.2-1.8-0.4-2.7-0.4s-1.8-0.2-2.6-0.6s-0.8-0.6-0.1-1.1s0.6-0.8-0.3-1.1c-0.5-0.2-1-0.3-1.4-0.5c-0.9-0.5-0.8-1.3,0.4-1.7
				c0.9-0.3,1.9-0.4,2.9-0.4c1.1,0,2.1-0.2,3.1-0.4c0.7-0.1,0.9-0.5,0.5-0.9c-0.1-0.2-0.4-0.3-0.3-0.5c0.1-0.8-0.6-1-1.5-1.1
				s-1.8-0.3-2.8-0.5c-0.2,0-0.4-0.1-0.5-0.3c0-0.1,0.1-0.2,0.2-0.3c1-0.3,2-0.8,3.2-0.5c0.4,0.1,1,0.2,1.4,0
				c1.4-0.5,2.9-0.5,4.3-0.8c0.8-0.1,0.9-0.3,0.5-0.8c-0.5-0.6-0.4-1,0.5-1.4c0.6-0.3,1.3-0.4,2-0.3c1.1,0.1,2.2,0,3.3-0.4
				c0.6-0.3,0.7-0.6,0.3-1c-0.5-0.4-1.2-0.7-2-0.7c-1.3,0-2.5-0.4-3.9-0.3c-0.4,0-0.7-0.1-0.7-0.4c0-0.4,0.4-0.4,0.8-0.4
				c0.1,0,0.2,0,0.2,0c1.2,0.3,2.3-0.3,3.5-0.2c0.2,0,0.4,0,0.4-0.2s-0.2-0.2-0.4-0.2c-0.8,0-1.5-0.2-2.3-0.3
				c-1.1-0.2-2.3-0.4-3.4-0.5c-1.2-0.1-2.5-0.1-3.6-0.5s-1.1-0.9-0.3-1.5c0.5-0.4,1.2-0.6,1.9-0.6c0.6-0.1,1.3-0.1,1.8-0.3
				c0.9-0.2,1.9-0.4,2.8-0.1c1.2,0.4,2.3,0.4,3.6,0.2c1.6-0.2,3.3-0.1,4.9,0c1.8,0.1,3.5,0.3,5.3-0.1c0.3-0.1,0.6,0,0.9-0.1
				c2.4-0.2,4.8,0.9,7.2,0.3c0.1,0,0.3,0,0.4,0c1,0,1.9,0.3,2.8,0c0.5-0.1,0.9,0,1.4-0.1c0.2,0,0.3,0,0.5,0l0,0l0,0
				c2.3-0.2,4.6-0.3,6.8,0H323C323,471.2,291.2,503,252,503z M251.3,433c-1.5,0.2-2.9,0.3-4.4,0c-0.4-0.1-0.9-0.2-0.8-0.6
				c0.1-0.4,0.5-0.5,1-0.6c1.4-0.3,2.8-0.1,4.1,0.2c0.2,0,0.4,0.2,0.6,0.2C252.3,432.4,252.1,432.8,251.3,433z"/>
			<path class="st3" d="M181,507.8c-1.2-1.8,0.2-3.3-0.5-5c-0.8-1.9-3.6-3.9-5.5-5.5c-2.1-1.7-4.3-3.5-6.1-3.8
				c-3.8,1.9-0.6,4.6,0.1,7.2c0.6,2.6-0.9,5.9,1.2,7.6c2.2,0.2,4.7-0.5,6.8,0.1c-0.3,3.8,4.9,8.3,8.2,7.1c1.6-0.6,3.5-3.5,2.8-5.2
				C186.7,507.2,183.3,509.6,181,507.8z"/>
		</g>
		<g>
			<path class="st3" d="M434,365.6c-3.9,1.5-8.9,2-15.3,2c6.5,2.9,9.8,6.9,9.8,13.6c0,10.3-8.3,17.8-21.8,17.8
				c-2.3,0-4.3-0.2-6.2-0.7c-1.2,0.8-2,2.1-2,3.5c0,1.8,0.9,3.5,6.1,3.5h8.1c12,0,19.7,6.4,19.7,15.2c0,10.7-9.3,17.2-27,17.2
				c-19.4,0-24.6-6.3-24.6-16.9h12.7c0,5,2.2,7.2,12.3,7.2c9.8,0,12.4-2.7,12.4-6.5c0-3.6-2.7-5.8-8.3-5.8h-7.8
				c-11.1,0-15.7-4.8-15.7-10.4c0-3.8,2.4-7.5,6.2-9.9c-6.6-3.6-9.4-8.3-9.4-15.1c0-11.7,9.3-19.2,22.5-19.2
				c12.2,0.3,18.4-2.8,24.8-6.4L434,365.6z M397.4,380.1c0,6.1,3.4,9.7,8.8,9.7c5.7,0,8.7-3.4,8.7-9.9c0-6.3-2.9-9.3-8.8-9.3
				C400.7,370.6,397.4,374.3,397.4,380.1z"/>
			<path class="st3" d="M472.3,362l-2.4,13.7c-1.6-0.4-2.9-0.7-4.7-0.7c-6.5,0-9.5,4.8-11.4,13.4v27.2h-14.2v-52.9h12.3l1.3,10.3
				c2.5-7.4,7.6-11.8,13.8-11.8C468.9,361.2,470.5,361.5,472.3,362z"/>
			<path class="st3" d="M493.5,343.7c0,4.7-3.6,8.3-8.7,8.3s-8.6-3.6-8.6-8.3s3.5-8.3,8.6-8.3S493.5,339,493.5,343.7z M492,415.6
				h-14.2v-52.9H492V415.6z"/>
			<path class="st3" d="M574.5,377.1v38.5h-14.2v-36.1c0-6.1-2.4-7.8-5.2-7.8c-3.9,0-6.5,2.7-9.2,7.4v36.5h-14.2v-36.1
				c0-6.1-2.3-7.8-5.2-7.8c-3.9,0-6.5,2.7-9.1,7.4v36.5h-14.2v-52.9h12.3l1.1,6.6c3.9-5.3,8.7-8.2,15.4-8.2c6,0,10.6,3.1,12.7,8.7
				c4.1-5.6,8.9-8.7,15.8-8.7C568.8,361.1,574.5,367.1,574.5,377.1z"/>
			<path class="st3" d="M630.6,393.4h-33c1,10.2,5.8,13.2,12.6,13.2c4.5,0,8.3-1.4,12.9-4.6l5.9,8c-5.2,4.2-11.8,7.2-20.1,7.2
				c-17,0-25.8-11.2-25.8-27.7c0-16,8.6-28.3,24-28.3c15,0,23.8,10,23.8,26.9C630.9,389.7,630.7,391.9,630.6,393.4z M616.8,384
				c0-8-2.7-13.2-9.5-13.2c-5.6,0-9,3.7-9.8,13.8h19.3V384z"/>
			<path class="st3" d="M676.9,367.5l-5.4,8.1c-4.3-2.7-8.6-4.2-13.2-4.2c-4.7,0-7.3,1.9-7.3,4.8c0,3.1,1.8,4.5,11.1,7.2
				c10.6,2.9,16.6,7.3,16.6,16.7c0,11-10.3,17.2-22.8,17.2c-9.2,0-16.6-3.1-21.6-7.7l7-7.8c4,3.1,8.9,5.2,14.2,5.2s8.7-2.2,8.7-5.8
				c0-4-1.9-5.3-11.7-8c-10.7-3-15.7-8.3-15.7-16.3c0-9,8.2-15.8,21-15.8C665.5,361.1,671.9,363.5,676.9,367.5z"/>
			<path class="st3" d="M427,452.9c-3.6,1-8.2,1.4-14.5,1.5c5.5,2.6,8.9,7,8.9,14.2c0,10.2-7.1,17.2-18.9,17.2c-2.5,0-4.8-0.3-6.8-1
				c-2.5,1.4-4,3.6-4,6c0,3.1,2,5.4,8.3,5.4h8.5c10.4,0,16.8,5.6,16.8,13.4c0,9.4-7.4,15-22.6,15c-15.8,0-21.8-4.6-21.8-15h5.4
				c0.1,7.3,3.9,10.2,16.4,10.2c12.2,0,16.8-3.7,16.8-9.9c0-5.6-4.4-8.7-11.8-8.7h-8.5c-8.7,0-12.9-4.2-12.9-9.2
				c0-3.5,2.1-6.6,5.7-8.9c-6-3.1-8.8-7.7-8.8-14.7c0-10.5,7.7-17.7,19.2-17.7c14,0.2,17.8-1.3,22.9-3.4L427,452.9z M389.1,468.3
				c0,8.4,5.2,13.2,13.2,13.2c8.5,0,13.2-4.8,13.2-13.1c0-8.2-4.3-13.3-13.2-13.3S389.1,460.6,389.1,468.3z"/>
			<path class="st3" d="M458.3,451.3l-1.1,5.5c-1.5-0.4-2.8-0.6-4.6-0.6c-7.3,0-11.3,5.3-14,16.1V504h-5.8v-52.2h5l0.5,11.7
				c2.8-8.6,7.5-12.8,14.8-12.8C455.1,450.7,456.9,450.9,458.3,451.3z"/>
			<path class="st3" d="M501.7,501l-1.3,4.1c-4.6-1-7.3-3.3-8.1-8.7c-3.8,5.8-9.3,8.7-16.3,8.7c-10.1,0-16.2-6.3-16.2-15.6
				c0-11,8.3-16.9,21.7-16.9h10v-5.1c0-8.3-3.4-12-12.1-12c-4.2,0-9,1.1-14.2,3l-1.5-4.4c5.8-2.3,11-3.5,16.5-3.5
				c11.9,0,17.1,5.9,17.1,16.6v25.1C497.3,498.2,498.9,499.9,501.7,501z M491.5,491v-14.2h-9.1c-10.5,0-16.4,4.1-16.4,12.4
				c0,7.2,4.1,11.2,11,11.2C483.8,500.4,488.3,497.1,491.5,491z"/>
			<path class="st3" d="M550.8,477.6c0,16.5-6.9,27.4-19.9,27.4c-6.6,0-11.6-3-14.9-7.2v25.8l-5.8,0.8v-72.6h5l0.5,7.6
				c3.8-5.3,9.3-8.7,16.1-8.7C544.7,450.7,550.8,460.8,550.8,477.6z M544.6,477.6c0-14.9-4.8-22.2-13.9-22.2c-6.7,0-11.1,4-14.7,9
				v27.7c3.2,4.9,7.9,8,13.8,8C539.4,500.2,544.6,492.6,544.6,477.6z"/>
			<path class="st3" d="M598.6,466.6V504h-5.8v-36.5c0-8.5-3.6-12.1-9.9-12.1c-7.1,0-11.9,4.4-16.2,10.8V504H561v-73.5l5.8-0.7v30.6
				c4.2-5.9,9.9-9.8,17.3-9.8C593.4,450.7,598.6,456.8,598.6,466.6z"/>
			<path class="st3" d="M618.2,433c0,2.3-1.7,4.2-4.4,4.2c-2.6,0-4.3-1.9-4.3-4.2c0-2.3,1.7-4.2,4.3-4.2
				C616.5,428.8,618.2,430.7,618.2,433z M616.8,504H611v-52.2h5.8V504z"/>
			<path class="st3" d="M663,456l-2.9,3.8c-3.4-2.7-6.8-4.1-11.6-4.1c-9.5,0-16.2,7.4-16.2,22.5c0,15,6.6,21.9,16.1,21.9
				c4.9,0,8.4-1.6,12.1-4.4l2.8,3.9c-4.1,3.5-9.1,5.6-15,5.6c-13.4,0-22.2-9.9-22.2-26.9c0-16.8,8.7-27.5,22-27.5
				C654.1,450.7,658.6,452.2,663,456z"/>
			<path class="st3" d="M703.4,456.5l-2.7,3.8c-4.6-3.2-8.5-4.8-13.8-4.8c-6.9,0-11.6,3.4-11.6,8.8c0,5.2,3.3,7.4,12.7,9.9
				c11.4,3,16.8,6.9,16.8,15.8c0,9.7-8.5,15.2-18.9,15.2c-8.5,0-14.2-2.9-18.7-6.7l3.2-3.7c4.4,3.5,9,5.5,15.4,5.5
				c7.6,0,12.9-3.6,12.9-10c0-6.3-2.9-8.6-13.8-11.6c-11.1-2.9-15.6-7-15.6-14.3c0-8,7.5-13.7,17.4-13.7
				C693.5,450.7,698.5,452.7,703.4,456.5z"/>
		</g>
	</g>
	<g class="st2">
		<g>
			<path class="st4" d="M346.5,432c0,52.2-42.3,94.5-94.5,94.5s-94.5-42.3-94.5-94.5s42.3-94.5,94.5-94.5S346.5,379.8,346.5,432z"/>
		</g>
		<g>
			<path class="st4" d="M432,432c0,99.4-80.6,180-180,180S72,531.4,72,432s80.6-180,180-180S432,332.6,432,432z"/>
		</g>
		<g>
			<path class="st4" d="M706.5,432c0,52.2-42.3,94.5-94.5,94.5s-94.5-42.3-94.5-94.5s42.3-94.5,94.5-94.5S706.5,379.8,706.5,432z"/>
		</g>
		<g>
			<path class="st4" d="M792,432c0,99.4-80.6,180-180,180s-180-80.6-180-180s80.6-180,180-180S792,332.6,792,432z"/>
		</g>
	</g>
</g>
<g>
	<path class="st3" d="M29.8,17.4c-0.3-0.6-0.1-0.6-0.9-1.5c-0.5-0.5-0.8-3-1.4-3.7c-0.1-0.3-0.3-0.6-0.5-0.8l-0.1-0.1
		c-0.2-0.5-0.3-1.2-0.7-1.6c-0.2-0.2-0.6-0.1-0.7-0.3s0-0.3-0.2-0.5c-0.9-1.1-1.8-1.3-2.7-2c-0.6,0.2-0.6-0.5-1-0.8
		C21.5,6,21.2,6.1,21,6c-0.6-0.3-1-1.1-1.7-0.7c0,0.2,0.4,0.3,0.4,0.5c-0.6,0.2-0.9,0-1.4-0.2c-0.4-0.1-1-0.1-1.3-0.1
		c-0.2,0-0.4-0.1-0.6-0.2c-0.1,0-0.3,0-0.5,0c-0.1,0-0.3-0.1-0.4-0.1c-0.1-0.1-0.2-0.1-0.4-0.1H15c-0.1,0-0.1-0.1-0.2-0.1
		c-0.3-0.2-0.7-0.3-1-0.2c-0.1,0-0.3,0-0.4,0c-0.3-0.1-1.1-0.2-1.3-0.3c-0.5-0.3-0.9-0.7-1.4-0.8c-0.1,0-0.3,0-0.4,0.1
		c-0.1,0.1,0,0.2,0.1,0.3c0.2,0.2,0.5,0.4,0.8,0.5c0.6,0.6,0.8,0.7,0.8,1c0,0.2-0.1,0.2-0.2,0.3c-0.2,0.3,0,0.3,0.1,0.6
		c0.1,0.2-0.3,0.1-0.4,0.1c-0.3-0.2-0.4-0.2-0.7-0.3c-0.2,0-0.4-0.2-0.5,0s-0.1,0.3,0.1,0.5c0.1,0.2,0.2,0.3,0.2,0.5
		c-0.2,0.1-0.4,0.2-0.6,0.3c-0.1,0-1,0.2-1.3,0.3C8.1,8.3,7.1,8.3,7.1,8.8c0,0.3,0.2,0.5,0.1,0.7C7.1,9.6,6.9,9.8,6.8,9.9
		c-0.2,0.3-0.4,0.6-0.6,0.9c0,0.1-0.1,0.1-0.1,0.2C5.9,11.2,6,12.2,5,11.7c-0.3-0.1-0.5-0.3-0.7-0.3c-0.6,0-1.3-0.7-1.6-0.4
		c-0.2,0.3,0.1,0.6,0.9,1.2c0.6,0.4,0.4,0.7,0.4,1c-0.2,0.5-0.9,0.3-1.3,0c-0.4-0.2-0.8-0.4-1.2-0.6c-0.4-0.2-0.9-0.7-1.2-0.3
		c-0.1,0.4,0.4,0.4,0.6,0.6c0.6,0.4,1.2,1.5,0.8,1.6c-0.6,0.3-0.9-0.4-1.5-0.4c-0.1,0-0.1,0-0.1,0.1c-0.1,0.6,0.5,0.7,0.8,1
		c0.2,0.2,0.3,0.4,0.5,0.6c0.2,0.2,1.3,1.6,1.7,1.9c0.2,0.2,0.4,0.3,0.6,0.5c0.1,0.3,0.2,0.5,0.2,0.8c-0.2,0.1-0.5,0-0.7,0.2
		C3.4,20,4,20.1,4.4,20.5c0,0.2,0.1,0.3,0.1,0.5c-0.1,0.2-0.2,0.5-0.3,0.6c-0.3,0-0.6-0.1-1,0c0.4,1.3,1.5,1.5,2.3,2
		C5.7,24,5.3,24,5.3,24.1c0.5,1,1.8,0.9,1.9,2.1c0.5,0.3,0.8,0.2,1.2,0.6c0.1,0.1,0.3,0.3,0.4,0.4c0.1,0.3,0.1,0.6,0.3,0.9
		S9.9,28.6,10,29c0.3-0.1,0.1-0.4,0.4-0.5c0.4,0.3,0.6,0.8,1.1,1.1c0.3,0.2,0.6,0.3,0.9,0.4c0,0.1,0.1,0.1,0.1,0.2
		c0.2,0.1,0.3,0.1,0.5,0.1c0.7,0.4,1.7,1.5,2.7,1.1c0.6-0.2,1-0.9,2.2-0.9c0.1-0.1,0.1-0.1,0.2-0.2c0.4,0.2,0.7,0.6,1.1,0.7
		c0.1,0,0.5,0,0.8,0.1c0.6,0.2,1.1,0.9,1.4,0.4c0.4-0.7-0.7-0.7-0.7-1.2c0.6-0.8,1.2,0.3,1.9,0.5c0.1,0.1,0.2,0.1,0.4,0.2
		c0.3,0.1,0.5,0.1,0.7,0.3c0.2,0.1,0.2,0.4,0.4,0.5c0.5,0.4,1.5,0.7,1.6,0.6c0-0.3-0.4-0.5-0.6-0.8c-0.3-0.3-0.6-0.6-0.8-0.7
		c-0.5-0.4-0.9-0.7-1.4-1.1c-0.1-0.1-0.3-0.2-0.3-0.3c0-0.1,0.1-0.1,0.1-0.1c0.2-0.1,0.2-0.3,0.4-0.5c0.2-0.1,1,0.4,1.3,0.6
		c0.2,0.2,0.5,0.4,0.7,0.1c0-0.2-0.3-0.4-0.5-0.5c-0.1-0.1-0.2-0.1-0.2-0.2c-0.3-0.4-0.5-0.7-0.8-1.1c0.8-0.3,1.3,1,1.9,0.5
		c0.1-0.4,0.5-0.5,0.7-0.3c0.6,0.8,1.3,0.7,1.7,1c0.4,0.3,0.5,0.4,1,0.2c0.2-0.4,0.2-0.4,0.2-0.8c0.3-0.2,1,0.8,1.3,0.4
		c0.2-0.4-0.4-0.9-0.5-1.3c-0.1-0.2-0.1-0.5-0.2-0.7c-0.2-0.3-0.6-0.2-0.9-0.5c-0.4-0.3-0.6-0.5-0.8-0.9c0,0,0.1,0,0.1-0.1
		s0-0.1,0-0.2c0.3,0.2,0.6,0.5,0.9,0.3c0.4-0.2,0-0.7,0.3-1c0.1-0.1,0.3-0.3,0.3-0.4c-0.2-0.3-0.1-0.6-0.3-0.8
		c-0.3-0.3-0.7,0.1-1.1-0.1c-0.3-0.2-0.4-0.4-0.4-0.6c0.1-0.1,0.1-0.2,0.1-0.4c0-0.2,0-0.4,0.2-0.5c0,0,0.1-0.1,0.3,0
		c0.3,0.2,0.9,0.5,1.1,0.3c0.2-0.3-0.9-1.1-1.1-1.7c0.2-0.2,0.6,0,0.6-0.1c0.1-0.3-1-0.9-0.7-1.2c0.2-0.2,0.8,0.3,1.2-0.3
		c0.1-0.3,0.8,0.5,1.1,0.1C30.8,18.3,30.2,18.2,29.8,17.4z M16.4,27.4c-5.2,0-9.5-4.2-9.5-9.5c0-5.2,4.2-9.5,9.5-9.5
		c1.7,0,3.3,0.5,4.7,1.3l0,0c1.4,0.8,2.5,1.9,3.4,3.3c-1.5,1.5-3.8,1.9-5.7,0.8l0,0l0,0c-0.7-0.4-1.5-0.6-2.4-0.6
		c-2.6,0-4.7,2.1-4.7,4.7s2.1,4.7,4.7,4.7c1.1,0,2.1-0.4,2.9-1c-0.1-0.1-0.1-0.1-0.1-0.2c0,0,0-0.1-0.1-0.1H19c-0.1,0-0.3,0-0.4-0.1
		c0,0-0.1,0-0.1-0.1c0,0,0-0.1,0.1-0.1s0.1,0,0.1,0c0.1,0,0.1,0,0.1-0.1c0,0,0-0.1-0.1-0.1s-0.2,0-0.2-0.1c-0.1,0-0.2,0-0.3,0
		c-0.1,0-0.2,0-0.4,0c-0.1,0-0.1-0.1-0.2-0.1s-0.2,0-0.3,0c-0.2,0-0.4,0-0.6-0.1c-0.1,0-0.2,0-0.4,0c-0.1,0-0.2,0-0.4-0.1
		c-0.1,0-0.1-0.1,0-0.1s0.1-0.1,0-0.1s-0.1,0-0.2-0.1c-0.1-0.1-0.1-0.2,0.1-0.2c0.1,0,0.3-0.1,0.4-0.1s0.3,0,0.4,0s0.1-0.1,0.1-0.1
		s0,0,0-0.1s-0.1-0.1-0.2-0.1s-0.2,0-0.4-0.1H16l0,0c0.1,0,0.3-0.1,0.4-0.1s0.1,0,0.2,0c0.2-0.1,0.4-0.1,0.6-0.1
		c0.1,0,0.1,0,0.1-0.1c-0.1-0.1,0-0.1,0.1-0.2c0.1,0,0.2,0,0.3,0c0.1,0,0.3,0,0.4-0.1c0.1,0,0.1-0.1,0-0.1c-0.1-0.1-0.2-0.1-0.3-0.1
		c-0.2,0-0.3,0-0.5,0h-0.1c0,0,0.1,0,0.1-0.1l0,0c0.2,0,0.3,0,0.5,0l0,0l0,0c-0.1,0-0.2,0-0.3,0c-0.1,0-0.3,0-0.5-0.1
		s-0.3,0-0.5-0.1c-0.1,0-0.1-0.1,0-0.2c0.1,0,0.2-0.1,0.3-0.1c0.1,0,0.2,0,0.3,0c0.1,0,0.3,0,0.4,0c0.2,0,0.3,0,0.5,0s0.4,0,0.6,0
		s0.5,0,0.7,0h0.1c0.3,0,0.6,0.1,1,0l0,0c0.1,0,0.3,0,0.4,0s0.1,0,0.2,0c0,0,0,0,0.1,0l0,0l0,0c0.3,0,0.6,0,0.9,0h3.8
		C25.9,23.2,21.6,27.4,16.4,27.4z M16.3,18.1c-0.2,0-0.4,0-0.6,0c-0.1,0-0.1,0-0.1-0.1s0.1-0.1,0.1-0.1c0.2,0,0.4,0,0.5,0h0.1
		C16.5,18,16.4,18.1,16.3,18.1z"/>
	<path class="st3" d="M6.9,28.1c-0.2-0.2,0-0.4-0.1-0.7c-0.1-0.3-0.5-0.5-0.7-0.7c-0.3-0.2-0.6-0.5-0.8-0.5c-0.5,0.3-0.1,0.6,0,1
		s-0.1,0.8,0.2,1c0.3,0,0.6-0.1,0.9,0c0,0.5,0.7,1.1,1.1,1C7.7,29,8,28.6,7.9,28.4C7.7,28,7.3,28.3,6.9,28.1z"/>
</g>
</svg>
